<?xml version="1.0" encoding="UTF-8" standalone="no"?>
<svg
   version="1.1"
   width="56.1875"
   height="60.336376"
   id="svg13"
   xmlns="http://www.w3.org/2000/svg"
   xmlns:svg="http://www.w3.org/2000/svg">
  <defs
     id="defs13" />
  <path
     d="m 23.1875,0.33637786 c 2.09375,-0.36328125 2.09375,-0.36328125 4.5,-0.3125 1.191094,0.005801 1.191094,0.005801 2.40625,0.0117188 2.09375,0.3007812 2.09375,0.3007812 4.09375,2.30078124 -0.0825,1.27875 -0.165,2.5575 -0.25,3.875 -0.129017,2.1411796 -0.129017,2.1411796 0.25,4.1250001 2.723886,2.28834 2.723886,2.28834 6,4 3.014434,3.42179 4.864075,5.613561 5.3125,10.1875 -0.297995,3.635535 -0.503291,4.435982 -2.375,7.25 -2.645844,4.074784 -1.727056,6.904121 -0.9375,11.5625 -0.66,0.66 -1.32,1.32 -2,2 2.121737,1.261128 2.121737,1.261128 5.3125,0.875 3.988011,0.135187 5.607041,0.660633 8.6875,3.125 1.3125,2.1875 1.3125,2.1875 2,4 -3.625,5.875 -3.625,5.875 -7,7 C 47.614343,59.925989 46.04363,59.50214 44.492187,59.016065 41.498109,58.133066 38.476918,57.422155 35.4375,56.711378 33.774609,56.320792 33.774609,56.320792 32.078125,55.922315 28.864571,55.27092 26.849921,55.098586 23.75,56.211378 c -6.327863,1.998273 -12.925995,3.125 -19.5625,3.125 C 1.554075,56.845301 0.261537,55.372901 0,51.711378 c 1.1875,-2.375 1.1875,-2.375 4.375,-4.1875 3.558969,-1.108531 6.126203,-1.457229 9.8125,-1.1875 0,-0.66 0,-1.32 0,-2 0.03481,-0.656133 0.06961,-1.312266 0.105469,-1.988281 0.17968,-5.090939 -0.258571,-7.684434 -3.105469,-12.011719 -1.474065,-5.208364 -1.004806,-8.448001 1.542969,-13.066406 2.558495,-3.395322 5.90632,-5.658381 9.457031,-7.9335941 -0.20625,-0.928125 -0.4125,-1.85625 -0.625,-2.8125 -0.375,-3.1875 -0.375,-3.1875 1.625,-6.18750004 z m 4,4.00000004 c 0,0.99 0,1.98 0,3 0.66,0 1.32,0 2,0 0,-0.99 0,-1.98 0,-3 -0.66,0 -1.32,0 -2,0 z m 0,13.0000001 c 0,1.32 0,2.64 0,4 -0.99,0 -1.98,0 -3,0 0,0.66 0,1.32 0,2 0.99,0 1.98,0 3,0 0,1.32 0,2.64 0,4 0.66,0 1.32,0 2,0 0,-1.32 0,-2.64 0,-4 0.99,0 1.98,0 3,0 0,-0.66 0,-1.32 0,-2 -0.99,0 -1.98,0 -3,0 0,-1.32 0,-2.64 0,-4 -0.66,0 -1.32,0 -2,0 z m -6,15 c -0.33,0.66 -0.66,1.32 -1,2 4.95,0 9.9,0 15,0 -0.33,-0.66 -0.66,-1.32 -1,-2 -4.29,0 -8.58,0 -13,0 z m -1,6 c 0,0.33 0,0.66 0,1 4.95,0 9.9,0 15,0 0,-0.33 0,-0.66 0,-1 -4.95,0 -9.9,0 -15,0 z"
     fill="#000000"
     id="path6" />
</svg>
