<?xml version="1.0" encoding="UTF-8" standalone="no"?>
<svg
   version="1.1"
   width="51.781647"
   height="51"
   id="svg13"
   xmlns="http://www.w3.org/2000/svg"
   xmlns:svg="http://www.w3.org/2000/svg">
  <defs
     id="defs13" />
  <path
     d="m 22.781647,0 c 2.993242,1.0975223 3.846109,1.6768289 5.25,4.625 0.2475,0.78375 0.495,1.5675 0.75,2.375 0.99,0.020625 1.98,0.04125 3,0.0625 6.020685,0.8896963 9.983188,5.25884 13.511719,9.945312 6.49328,10.568643 6.488281,21.757438 6.488281,33.992188 -12.21,0 -24.42,0 -37,0 1.125,-9 1.125,-9 4.5625,-14 0.640664,-0.94875 1.281328,-1.8975 1.941406,-2.875 0.740566,-1.051875 0.740566,-1.051875 1.496094,-2.125 -3.935485,3.060932 -6.681168,5.49116 -9,10 C 8.8722467,41.50906 4.8471727,40.903947 0.78164673,38 -1.3414673,31.276806 1.2211937,26.740528 4.1566467,20.625 7.3374967,13.935577 9.3725027,8.4403514 9.7816467,1 13.251062,1.4582247 16.455597,1.8913168 19.781647,3 c 0.99,-0.99 1.98,-1.98 3,-3 z m 4,12 c 0.587812,0.275859 1.175625,0.551719 1.78125,0.835938 2.122957,1.113804 3.862363,2.278638 5.71875,3.789062 0.567187,0.446016 1.134375,0.892031 1.71875,1.351562 4.989584,5.667993 6.519446,12.214639 7.53125,19.523438 0.125039,0.822422 0.250078,1.644844 0.378906,2.492187 0.302449,2.000815 0.588518,4.004095 0.871094,6.007813 0.99,-0.495 0.99,-0.495 2,-1 C 46.397381,32.741902 44.438734,23.83192 35.887116,14.71875 32.792165,12.19226 30.720859,11.917933 26.781647,12 Z m -13,3 c -1.717112,2.44496 -1.717112,2.44496 -3,5 2.495525,-0.781301 2.495525,-0.781301 5,-2 0.33,-0.99 0.66,-1.98 1,-3 -0.99,0 -1.98,0 -3,0 z"
     fill="#000000"
     id="path2" />
</svg>
