<?xml version="1.0" encoding="UTF-8" standalone="no"?>
<svg
   version="1.1"
   width="52.780437"
   height="57.410156"
   id="svg13"
   xmlns="http://www.w3.org/2000/svg"
   xmlns:svg="http://www.w3.org/2000/svg">
  <defs
     id="defs13" />
  <path
     d="m 24.533068,1.1495361e-6 c 1.32,0 2.64,0 4,0 0.33,1.3199999504639 0.66,2.6399999504639 1,3.9999999504639 0.99,0 1.98,0 3,0 0,1.32 0,2.64 0,4 -0.99,0.495 -0.99,0.495 -2,1 -0.33,0.99 -0.66,1.9799999 -1,2.9999999 0.99,0.33 1.98,0.66 3,1 0.495,2.97 0.495,2.97 1,6 0.568476,-0.322266 1.136953,-0.644531 1.722656,-0.976563 3.705403,-1.665206 7.294007,-1.619873 11.277344,-1.023437 2.870299,1.793937 4.491316,2.982633 6,6 1.023153,6.650494 -1.262839,11.044629 -4.369141,16.769775 -1.867551,3.493169 -3.080019,6.497795 -3.630859,10.417725 -0.33,1.258125 -0.66,2.51625 -1,3.8125 -5.590664,3.263699 -10.631986,3.46054 -17,3.375 -0.863672,0.0116 -1.727344,0.0232 -2.617188,0.03516 -5.38371,-0.02455 -11.317831,-0.345175 -15.3828125,-4.410156 -0.24752,-1.643173 -0.472576,-3.289746 -0.6875,-4.9375 -0.741954,-4.445974 -1.940015,-7.444211 -4.4375,-11.1875 C 0.75615612,32.786638 -0.28125378,29.861663 0.06431742,24.98047 0.78933052,21.91729 2.2736496,20.126512 4.5330675,18.000001 c 2.325959,-1.16298 3.787232,-1.166007 6.3750005,-1.1875 0.770859,-0.01418 1.541719,-0.02836 2.335937,-0.04297 2.507412,0.252453 4.121682,0.978534 6.289063,2.230469 -0.0825,-0.721875 -0.165,-1.44375 -0.25,-2.1875 0.324266,-3.647988 1.823196,-5.158183 4.25,-7.8124999 -0.99,-0.33 -1.98,-0.66 -3,-1 0,-1.32 0,-2.64 0,-4 0.99,0 1.98,0 3,0 0.33,-1.32 0.66,-2.64 1,-3.9999989504639 z M 7.5330675,21.000001 c -0.33,0.66 -0.66,1.32 -1,2 2.64,-0.33 5.2800005,-0.66 8.0000005,-1 0,-0.33 0,-0.66 0,-1 -2.31,0 -4.6200005,0 -7.0000005,0 z m 31.0000005,0 c 0,0.33 0,0.66 0,1 1.98,0 3.96,0 6,0 0,-0.33 0,-0.66 0,-1 -1.98,0 -3.96,0 -6,0 z m 8,2 c 1,2 1,2 1,2 z m -42.0000005,1 c 0,1.98 0,3.96 0,6 0.33,0 0.66,0 1,0 0,-1.98 0,-3.96 0,-6 -0.33,0 -0.66,0 -1,0 z m 43.0000005,1 c 1,4 1,4 1,4 z m -16,1 c 1,2 1,2 1,2 z m -11,1 c 1,2 1,2 1,2 z m 10,1 c 1,2 1,2 1,2 z m -9,1 c 0,2.64 0,5.28 0,8 -3.3,0.33 -6.6,0.66 -10,1 0.66,0.66 1.32,1.32 2,2 2.958955,-0.02052 2.958955,-0.02052 6.375,-0.4375 5.917403,-0.547908 11.240459,-0.349106 17.101562,0.574219 3.16704,0.110101 3.16704,0.110101 6.523438,-4.136719 -4.29,0.66 -8.58,1.32 -13,2 0,-2.64 0,-5.28 0,-8 -0.33,0 -0.66,0 -1,0 -0.33,1.98 -0.66,3.96 -1,6 -1.65,0.33 -3.3,0.66 -5,1 -0.33,-2.64 -0.66,-5.28 -1,-8 -0.33,0 -0.66,0 -1,0 z m 22,5 c 1,2 1,2 1,2 z m -28,14 c 0,0.66 0,1.32 0,2 7.26,0 14.52,0 22,0 0,-0.66 0,-1.32 0,-2 -7.231928,-1.56366 -14.786219,-1.643646 -22,0 z"
     fill="#000000"
     id="path4" />
</svg>
