<?xml version="1.0" encoding="UTF-8" standalone="no"?>
<svg
   version="1.1"
   width="38.088135"
   height="50.739731"
   id="svg13"
   xmlns="http://www.w3.org/2000/svg"
   xmlns:svg="http://www.w3.org/2000/svg">
  <defs
     id="defs13" />
  <path
     d="M 23,0.73972893 C 26,2.7397289 26,2.7397289 26.6875,5.1147289 27,7.7397289 27,7.7397289 27,11.739729 c 0.66,0.78375 1.32,1.5675 2,2.375 2,2.625 2,2.625 2.4375,5.5625 -0.50139,3.509726 -1.686933,5.999008 -3.4375,9.0625 0.5775,0.226875 1.155,0.45375 1.75,0.6875 3.111516,1.815051 4.369635,3.178559 6.25,6.3125 2.587241,10.238278 2.587241,10.238278 1,15 -12.21,0 -24.42,0 -37,0 C 0,37.178753 0,37.178753 5.5625,30.802229 8,28.739729 8,28.739729 10,28.739729 c -0.495,-0.66 -0.99,-1.32 -1.5,-2 -1.893621,-3.787242 -2.309353,-6.833964 -1.5,-11 1.313219,-1.682561 2.646131,-3.349972 4,-5 0.04022,-2.3329867 0.0432,-4.6670668 0,-7.0000001 3.156411,-4.50915837 7.035838,-4.13762037 12,-2.99999997 z"
     fill="#000000"
     id="path7" />
</svg>
