<?xml version="1.0" encoding="UTF-8" standalone="no"?>
<svg
   version="1.1"
   width="60.098633"
   height="56.085052"
   id="svg13"
   xmlns="http://www.w3.org/2000/svg"
   xmlns:svg="http://www.w3.org/2000/svg">
  <defs
     id="defs13" />
  <path
     d="m 33.28125,0.84420717 c 2.536564,3.80484653 1.811243,4.61928893 1,9.00000003 -0.202394,4.2285968 -0.34679,7.9596288 1,11.9999998 1.975119,-4.871961 2.372635,-9.419218 2.65625,-14.6093748 0.34375,-2.390625 0.34375,-2.390625 2.34375,-4.390625 2.9375,-0.4375 2.9375,-0.4375 6,0 2.0625,2.125 2.0625,2.125 3,5 -0.963141,2.018009 -1.969586,4.0154978 -3,5.9999998 -0.267196,3.01833 -0.181324,5.977927 0,9 2.064094,-3.096141 2.222089,-3.971289 2.375,-7.5 0.399179,-4.225788 0.399179,-4.225788 2.375,-6.6249998 2.892813,-1.124983 4.352628,-0.942453 7.25,0.125 2,2.9999998 2,2.9999998 1.625,5.6874998 -0.20625,0.763125 -0.4125,1.52625 -0.625,2.3125 -0.99,0.33 -1.98,0.66 -3,1 -0.10957,0.857227 -0.219141,1.714453 -0.332031,2.597656 -2.13202,15.37481 -2.13202,15.37481 -6.285157,18.695313 -1.679722,1.719026 -1.679722,1.719026 -1.457031,4.625 0.127617,1.078945 0.255235,2.15789 0.386719,3.269531 0.119883,1.08668 0.239766,2.173359 0.363281,3.292969 0.106992,0.831445 0.213985,1.66289 0.324219,2.519531 -5.889238,3.926159 -12.527311,3.183188 -19.375,3.1875 -1.523672,0.01837 -1.523672,0.01837 -3.078125,0.03711 -5.587126,0.01088 -10.273091,-0.34536 -15.546875,-2.22461 -0.12738,-6.623751 -0.12738,-6.623751 0.675781,-8.996094 0.556477,-2.066877 0.556477,-2.066877 -0.785156,-3.835937 C 10.630469,40.358621 10.089063,39.705066 9.53125,39.031707 5.699263,33.739494 4.947407,28.310131 4.019531,22.004363 3.594577,18.559062 3.594577,18.559062 0.28125,16.844207 c -0.375,-3.5 -0.375,-3.5 0,-6.9999998 3,-2 3,-2 5.5625,-1.75 2.4375,0.75 2.4375,0.75 4.4375,2.7499998 0.597656,2.347656 0.597656,2.347656 1.0625,5.0625 0.347776,3.26834 0.347776,3.26834 1.9375,5.9375 1.46761,-3.815787 0.480105,-6.299737 -1,-10 -0.33,-0.33 -0.66,-0.66 -1,-1 -0.1875,-2.9374998 -0.1875,-2.9374998 0,-5.9999998 2,-2 2,-2 5,-2.25 3,0.25 3,0.25 5,2.25 0.434932,2.3196363 0.776862,4.6572901 1.0625,6.9999998 0.4429,4.654999 0.4429,4.654999 1.9375,9 1.234273,-1.013848 1.234273,-1.013848 1.132812,-3.109375 0.0094,-5.419371 0.0094,-5.419371 -0.757812,-10.7656248 -0.479098,-2.7148904 0.09747,-3.8738983 1.625,-6.12500003 2.724159,-1.3620796 4.127794,-0.86166193 7,0 z m -4,3.00000003 c 0,0.99 0,1.98 0,3 0.66,0 1.32,0 2,0 0,-0.99 0,-1.98 0,-3 -0.66,0 -1.32,0 -2,0 z m -14,3 c 0,0.66 0,1.32 0,2 0.66,0 1.32,0 2,0 0,-0.66 0,-1.32 0,-2 -0.66,0 -1.32,0 -2,0 z m 27,0 c 0,0.66 0,1.32 0,2 0.99,0 1.98,0 3,0 0,-0.66 0,-1.32 0,-2 -0.99,0 -1.98,0 -3,0 z m -38,4.9999998 c 0,0.99 0,1.98 0,3 0.66,0 1.32,0 2,0 0,-0.99 0,-1.98 0,-3 -0.66,0 -1.32,0 -2,0 z m 49,0 c 0,0.99 0,1.98 0,3 0.99,-0.33 1.98,-0.66 3,-1 0,-0.66 0,-1.32 0,-2 -0.99,0 -1.98,0 -3,0 z m -36,23 c -0.66,0.66 -1.32,1.32 -2,2 9.57,0 19.14,0 29,0 -0.33,-0.66 -0.66,-1.32 -1,-2 -13.035621,-1.156189 -13.035621,-1.156189 -26,0 z m 0,11 c 0,0.66 0,1.32 0,2 8.58,0 17.16,0 26,0 0,-0.66 0,-1.32 0,-2 -2.420668,-1.210334 -3.981669,-1.129228 -6.683594,-1.132813 -0.92748,-0.0013 -1.854961,-0.0026 -2.810547,-0.0039 -1.456963,0.0058 -1.456963,0.0058 -2.943359,0.01172 -0.967441,-0.0039 -1.934883,-0.0077 -2.931641,-0.01172 -0.928769,0.0013 -1.857539,0.0026 -2.814453,0.0039 -1.277018,0.0017 -1.277018,0.0017 -2.579834,0.0034 -2.408514,0.04178 -2.408514,0.04178 -5.236572,1.129413 z"
     fill="#000000"
     id="path1" />
</svg>
