<?xml version="1.0" encoding="UTF-8" standalone="no"?>
<svg
   version="1.1"
   width="44.921875"
   height="50.497086"
   id="svg13"
   xmlns="http://www.w3.org/2000/svg"
   xmlns:svg="http://www.w3.org/2000/svg">
  <defs
     id="defs13" />
  <path
     d="M 6.585935,0 C 7.8040991,0.03480469 7.8040991,0.03480469 9.0468725,0.0703125 10.272771,0.09738281 10.272771,0.09738281 11.523435,0.125 c 0.939727,0.0348047 0.939727,0.0348047 1.898438,0.0703125 0,0.99 0,1.98 0,3 0.99,0 1.98,0 3,0 0,-0.99 0,-1.98 0,-3 3.96,0 7.92,0 11.999999,0 0.33,0.99 0.66,1.98 1,3 0.66,0 1.32,0 2,0 0.33,-0.99 0.66,-1.98 1,-3 1.479069,-0.0268922 2.958275,-0.0463462 4.4375,-0.0625 0.823711,-0.0116016 1.647422,-0.0232031 2.496094,-0.03515625 2.066406,0.09765625 2.066406,0.09765625 3.066406,1.09765625 0.273438,2.109375 0.273438,2.109375 0.375,4.75 0.04899,0.8610937 0.09797,1.7221875 0.148438,2.609375 -0.523438,2.6406255 -0.523438,2.6406255 -3,4.9140625 -3.49051,3.77148 -3.366992,6.623856 -3.273438,11.601562 0.0045,0.81066 0.009,1.621319 0.01367,2.456543 0.145317,3.648494 0.314204,6.012284 2.314453,9.121582 1.881802,1.68358 1.881802,1.68358 3.859375,3.09375 1.5625,1.453125 1.5625,1.453125 2.0625,3.59375 0,2.234375 0,2.234375 -0.5,5.859375 -1.948639,1.94864 -4.898087,1.129188 -7.49121,1.138947 -0.910401,-0.002 -1.820801,-0.004 -2.75879,-0.0061 -0.928447,9.57e-4 -1.856894,0.0019 -2.813476,0.0029 -1.967123,6.82e-4 -3.934248,-0.0012 -5.901367,-0.0053 -3.022187,-0.0053 -6.044225,-5.6e-5 -9.066406,0.0063 -1.906251,-6.61e-4 -3.812501,-0.0019 -5.71875,-0.0039 -1.3656011,0.003 -1.3656011,0.003 -2.7587896,0.0061 -6.3762612,-0.024 -6.3762612,-0.024 -7.4912109,-1.138947 -0.5625,-3.0625 -0.5625,-3.0625 0,-7 1.7851563,-1.609375 1.7851563,-1.609375 4,-3.3125 3.1338142,-2.821548 4.2663128,-4.914878 4.7421875,-9.023437 0.076117,-1.616002 0.1198977,-3.233821 0.1328125,-4.851563 0.019336,-0.784797 0.038672,-1.569594 0.058594,-2.378173 C 9.262835,18.277225 9.262835,18.277225 7.0419897,14.69751 5.5083265,13.521747 3.9654351,12.358049 2.4218725,11.195313 c -0.65625,-2.3867192 -0.65625,-2.3867192 -0.5,-4.6875005 0.030938,-0.7669922 0.061875,-1.5339844 0.09375,-2.3242188 C 2.6133292,1.2582795 3.6062237,0.26892701 6.585935,0 Z m 6.835938,17.195312 c 0,0.66 0,1.32 0,2 6.27,0 12.539999,0 18.999999,0 0,-0.66 0,-1.32 0,-2 -6.27,0 -12.539999,0 -18.999999,0 z m 0,15 c 0,0.66 0,1.32 0,2 6.27,0 12.539999,0 18.999999,0 0,-0.659999 0,-1.32 0,-2 -6.27,0 -12.539999,0 -18.999999,0 z"
     fill="#000000"
     id="path5" />
</svg>
