<?xml version="1.0" encoding="UTF-8"?>
<svg version="1.1" xmlns="http://www.w3.org/2000/svg" width="600" height="153">
<path d="M0 0 C2.53656435 3.80484653 1.81124279 4.61928891 1 9 C0.79760561 13.22859697 0.65320975 16.95962924 2 21 C3.97511938 16.12803885 4.37263485 11.58078232 4.65625 6.390625 C5 4 5 4 7 2 C9.9375 1.5625 9.9375 1.5625 13 2 C15.0625 4.125 15.0625 4.125 16 7 C15.03685937 9.01800895 14.03041427 11.01549844 13 13 C12.73280357 16.01833008 12.8186756 18.97792675 13 22 C15.06409375 18.90385938 15.22208921 18.02871058 15.375 14.5 C15.77417871 10.27421156 15.77417871 10.27421156 17.75 7.875 C20.64281334 6.75001704 22.10262762 6.93254702 25 8 C27 11 27 11 26.625 13.6875 C26.41875 14.450625 26.2125 15.21375 26 16 C25.01 16.33 24.02 16.66 23 17 C22.89042969 17.85722656 22.78085938 18.71445312 22.66796875 19.59765625 C20.53594891 34.97246597 20.53594891 34.97246597 16.3828125 38.29296875 C14.70308964 40.01199516 14.70308964 40.01199516 14.92578125 42.91796875 C15.05339844 43.99691406 15.18101562 45.07585938 15.3125 46.1875 C15.43238281 47.27417969 15.55226562 48.36085937 15.67578125 49.48046875 C15.78277344 50.31191406 15.88976562 51.14335938 16 52 C10.1107618 55.9261588 3.47268929 55.18318785 -3.375 55.1875 C-4.89867187 55.20586914 -4.89867187 55.20586914 -6.453125 55.22460938 C-12.04025114 55.23549339 -16.72621609 54.87924976 -22 53 C-22.12737983 46.37624908 -22.12737983 46.37624908 -21.32421875 44.00390625 C-20.76774184 41.9370288 -20.76774184 41.9370288 -22.109375 40.16796875 C-22.65078125 39.51441406 -23.1921875 38.86085937 -23.75 38.1875 C-27.58198716 32.89528679 -28.333843 27.46592409 -29.26171875 21.16015625 C-29.68667288 17.71485509 -29.68667288 17.71485509 -33 16 C-33.375 12.5 -33.375 12.5 -33 9 C-30 7 -30 7 -27.4375 7.25 C-25 8 -25 8 -23 10 C-22.40234375 12.34765625 -22.40234375 12.34765625 -21.9375 15.0625 C-21.58972434 18.33083952 -21.58972434 18.33083952 -20 21 C-18.53238961 17.18421299 -19.5198949 14.70026276 -21 11 C-21.33 10.67 -21.66 10.34 -22 10 C-22.1875 7.0625 -22.1875 7.0625 -22 4 C-20 2 -20 2 -17 1.75 C-14 2 -14 2 -12 4 C-11.56506818 6.31963635 -11.22313778 8.65729013 -10.9375 11 C-10.49460003 15.65499887 -10.49460003 15.65499887 -9 20 C-7.76572669 18.98615195 -7.76572669 18.98615195 -7.8671875 16.890625 C-7.8577518 11.4712542 -7.8577518 11.4712542 -8.625 6.125 C-9.1040983 3.41010961 -8.52753329 2.25110169 -7 0 C-4.27584084 -1.36207958 -2.87220643 -0.86166193 0 0 Z M-4 3 C-4 3.99 -4 4.98 -4 6 C-3.34 6 -2.68 6 -2 6 C-2 5.01 -2 4.02 -2 3 C-2.66 3 -3.32 3 -4 3 Z M-18 6 C-18 6.66 -18 7.32 -18 8 C-17.34 8 -16.68 8 -16 8 C-16 7.34 -16 6.68 -16 6 C-16.66 6 -17.32 6 -18 6 Z M9 6 C9 6.66 9 7.32 9 8 C9.99 8 10.98 8 12 8 C12 7.34 12 6.68 12 6 C11.01 6 10.02 6 9 6 Z M-29 11 C-29 11.99 -29 12.98 -29 14 C-28.34 14 -27.68 14 -27 14 C-27 13.01 -27 12.02 -27 11 C-27.66 11 -28.32 11 -29 11 Z M20 11 C20 11.99 20 12.98 20 14 C20.99 13.67 21.98 13.34 23 13 C23 12.34 23 11.68 23 11 C22.01 11 21.02 11 20 11 Z M-16 34 C-16.66 34.66 -17.32 35.32 -18 36 C-8.43 36 1.14 36 11 36 C10.67 35.34 10.34 34.68 10 34 C-3.03562115 32.84381125 -3.03562115 32.84381125 -16 34 Z M-16 45 C-16 45.66 -16 46.32 -16 47 C-7.42 47 1.16 47 10 47 C10 46.34 10 45.68 10 45 C7.57933169 43.78966585 6.01833058 43.87077197 3.31640625 43.8671875 C2.38892578 43.86589844 1.46144531 43.86460938 0.50585938 43.86328125 C-0.95110352 43.86908203 -0.95110352 43.86908203 -2.4375 43.875 C-3.40494141 43.87113281 -4.37238281 43.86726563 -5.36914062 43.86328125 C-6.29791016 43.86457031 -7.22667969 43.86585937 -8.18359375 43.8671875 C-9.46061157 43.86887939 -9.46061157 43.86887939 -10.76342773 43.87060547 C-13.171942 43.91236599 -13.171942 43.91236599 -16 45 Z " fill="#000000" transform="translate(140,2)"/>
<path d="M0 0 C2.99324263 1.0975223 3.84610901 1.67682892 5.25 4.625 C5.4975 5.40875 5.745 6.1925 6 7 C6.99 7.020625 7.98 7.04125 9 7.0625 C15.02068468 7.95219632 18.98318772 12.32133976 22.51171875 17.0078125 C29.00499919 27.57645514 29 38.76524977 29 51 C16.79 51 4.58 51 -8 51 C-6.875 42 -6.875 42 -3.4375 37 C-2.79683594 36.05125 -2.15617187 35.1025 -1.49609375 34.125 C-0.75552734 33.073125 -0.75552734 33.073125 0 32 C-3.93548431 35.06093224 -6.68116787 37.49115974 -9 42 C-13.90939982 41.50906002 -17.93447362 40.90394741 -22 38 C-24.12311383 31.27680621 -21.56045325 26.74052759 -18.625 20.625 C-15.44415047 13.93557704 -13.40914356 8.4403514 -13 1 C-9.53058454 1.45822468 -6.32604951 1.89131683 -3 3 C-2.01 2.01 -1.02 1.02 0 0 Z M4 12 C4.5878125 12.27585937 5.175625 12.55171875 5.78125 12.8359375 C7.90420678 13.94974229 9.64361344 15.11457639 11.5 16.625 C12.0671875 17.07101563 12.634375 17.51703125 13.21875 17.9765625 C18.20833401 23.64455486 19.73819559 30.19120108 20.75 37.5 C20.87503906 38.32242188 21.00007813 39.14484375 21.12890625 39.9921875 C21.431355 41.99300228 21.71742438 43.99628194 22 46 C22.99 45.505 22.99 45.505 24 45 C23.61573361 32.74190222 21.65708737 23.83191956 13.10546875 14.71875 C10.01051845 12.19225996 7.9392121 11.91793308 4 12 Z M-9 15 C-10.71711243 17.44496043 -10.71711243 17.44496043 -12 20 C-9.50447516 19.21869929 -9.50447516 19.21869929 -7 18 C-6.67 17.01 -6.34 16.02 -6 15 C-6.99 15 -7.98 15 -9 15 Z " fill="#000000" transform="translate(467,6)"/>
<path d="M0 0 C3 0.25 3 0.25 5 2.25 C4.9559884 4.75572698 4.81431775 7.13977057 4.5625 9.625 C3.90516057 15.50021564 3.90516057 15.50021564 5 21.25 C7.24977726 14.6688504 7.24977726 14.6688504 8 7.8125 C8 5.25 8 5.25 9.1875 3.375 C11.68036381 1.82770522 13.11967335 1.74594284 16 2.25 C17.9375 3.875 17.9375 3.875 19 6.25 C18.3007918 9.16336749 17.33508269 11.57983461 16 14.25 C15.9310528 15.62342831 15.91532292 17.00002102 15.9375 18.375 C15.958125 19.65375 15.97875 20.9325 16 22.25 C18.05099268 19.34442703 19.01126995 17.80222751 18.9375 14.1875 C19 11.25 19 11.25 20.6875 8.8125 C23 7.25 23 7.25 25.625 7.3125 C28 8.25 28 8.25 30 11.25 C29.76560006 14.21906592 29.155964 16.00877568 27.53515625 18.515625 C25.81234385 21.5842476 25.25638247 24.17289586 24.625 27.625 C23.75806989 31.78253579 23.06380164 34.67255172 20.25 37.875 C18.33705204 40.13523911 18.00536457 41.01027082 17.9375 44.04296875 C18.140004 45.99966365 18.39233464 47.9520915 18.703125 49.89453125 C19 52.25 19 52.25 18 54.25 C6.86000577 57.96333141 -6.66056818 56.40567324 -18 54.25 C-18.33 53.92 -18.66 53.59 -19 53.25 C-18.6501641 50.58940589 -18.21984367 47.94941235 -17.765625 45.3046875 C-18.0584919 41.48765559 -19.44616839 40.08978075 -21.74414062 37.15527344 C-23.90928985 33.87050972 -24.42911086 30.25826276 -25.125 26.4375 C-25.64795516 23.65076147 -26.25747855 20.99499073 -27 18.25 C-27.99 17.59 -28.98 16.93 -30 16.25 C-30.4375 13.3125 -30.4375 13.3125 -30 10.25 C-28.3125 8.25 -28.3125 8.25 -26 7.25 C-23.60736593 7.91771183 -21.77902615 8.47097385 -20 10.25 C-19.50668876 12.7927952 -19.10021963 15.3440669 -18.6953125 17.90234375 C-18.16888956 20.59982523 -18.16888956 20.59982523 -15 22.25 C-15.28211877 20.6233152 -15.57602375 18.99867104 -15.875 17.375 C-16.03742188 16.47007813 -16.19984375 15.56515625 -16.3671875 14.6328125 C-16.83044703 12.08494012 -16.83044703 12.08494012 -19 10.25 C-19.25 7.25 -19.25 7.25 -19 4.25 C-17 2.25 -17 2.25 -14 2 C-11 2.25 -11 2.25 -9 4.25 C-8.59106354 6.38271723 -8.26905431 8.53266321 -8 10.6875 C-7.38430942 15.77837561 -7.38430942 15.77837561 -5 20.25 C-5.02320313 18.97382812 -5.04640625 17.69765625 -5.0703125 16.3828125 C-5.08906829 14.7135475 -5.10726869 13.0442762 -5.125 11.375 C-5.14175781 10.53324219 -5.15851563 9.69148438 -5.17578125 8.82421875 C-5.18222656 8.01855469 -5.18867188 7.21289062 -5.1953125 6.3828125 C-5.20578613 5.63918457 -5.21625977 4.89555664 -5.22705078 4.12939453 C-4.80618899 0.645745 -3.277064 0.27308867 0 0 Z M-1 3.25 C-1 4.24 -1 5.23 -1 6.25 C-0.34 6.25 0.32 6.25 1 6.25 C1 5.26 1 4.27 1 3.25 C0.34 3.25 -0.32 3.25 -1 3.25 Z M-15 6.25 C-14.67 7.24 -14.34 8.23 -14 9.25 C-13.34 8.59 -12.68 7.93 -12 7.25 C-12.99 6.92 -13.98 6.59 -15 6.25 Z M12 6.25 C12.33 7.24 12.66 8.23 13 9.25 C13.66 8.92 14.32 8.59 15 8.25 C15 7.59 15 6.93 15 6.25 C14.01 6.25 13.02 6.25 12 6.25 Z M-26 11.25 C-26 12.24 -26 13.23 -26 14.25 C-25.34 14.25 -24.68 14.25 -24 14.25 C-24 13.26 -24 12.27 -24 11.25 C-24.66 11.25 -25.32 11.25 -26 11.25 Z M24 11.25 C23.67 12.24 23.34 13.23 23 14.25 C23.99 14.25 24.98 14.25 26 14.25 C26 13.26 26 12.27 26 11.25 C25.34 11.25 24.68 11.25 24 11.25 Z M10 19.25 C9.58427734 20.08144531 9.58427734 20.08144531 9.16015625 20.9296875 C7.7734375 23.703125 6.38671875 26.4765625 5 29.25 C7.31 29.58 9.62 29.91 12 30.25 C11.67 26.62 11.34 22.99 11 19.25 C10.67 19.25 10.34 19.25 10 19.25 Z M-12 20.25 C-12.33 23.55 -12.66 26.85 -13 30.25 C-9.535 29.755 -9.535 29.755 -6 29.25 C-7.65 26.28 -9.3 23.31 -11 20.25 C-11.33 20.25 -11.66 20.25 -12 20.25 Z M-1 20.25 C-1.99 23.22 -2.98 26.19 -4 29.25 C-1.69 29.25 0.62 29.25 3 29.25 C2.01 26.28 1.02 23.31 0 20.25 C-0.33 20.25 -0.66 20.25 -1 20.25 Z M-21 24.25 C-20 26.25 -20 26.25 -20 26.25 Z M19 25.25 C17.30911778 27.22956942 15.64169528 29.22945196 14 31.25 C16.475 31.745 16.475 31.745 19 32.25 C19.33 29.94 19.66 27.63 20 25.25 C19.67 25.25 19.34 25.25 19 25.25 Z M-20 26.25 C-20 27.9 -20 29.55 -20 31.25 C-19.01 31.58 -18.02 31.91 -17 32.25 C-16.01 31.59 -15.02 30.93 -14 30.25 C-15.98 28.93 -17.96 27.61 -20 26.25 Z M-14 35.25 C-14 35.58 -14 35.91 -14 36.25 C-4.76 36.25 4.48 36.25 14 36.25 C10.06023214 32.31023214 4.84947873 33.06701493 -0.4375 33.0625 C-1.18837891 33.05025391 -1.93925781 33.03800781 -2.71289062 33.02539062 C-6.93647648 33.0142466 -10.14303716 33.3100167 -14 35.25 Z M-13 40.25 C-13 41.57 -13 42.89 -13 44.25 C-4.75 44.25 3.5 44.25 12 44.25 C12 42.93 12 41.61 12 40.25 C3.50791416 39.51401923 -4.53095523 38.95473433 -13 40.25 Z M-12 48.25 C-12.33 48.91 -12.66 49.57 -13 50.25 C-8.68219317 51.68926894 -4.52237315 51.43431523 0 51.4375 C1.37285156 51.45586914 1.37285156 51.45586914 2.7734375 51.47460938 C4.09214844 51.47750977 4.09214844 51.47750977 5.4375 51.48046875 C6.24058594 51.48457764 7.04367188 51.48868652 7.87109375 51.49291992 C10.29990907 51.3799678 10.29990907 51.3799678 13 49.25 C11.96207228 47.98818905 11.96207228 47.98818905 9.68334961 48.13647461 C8.18300171 48.14432983 8.18300171 48.14432983 6.65234375 48.15234375 C5.57275391 48.15556641 4.49316406 48.15878906 3.38085938 48.16210938 C1.67639648 48.17467773 1.67639648 48.17467773 -0.0625 48.1875 C-1.20267578 48.19201172 -2.34285156 48.19652344 -3.51757812 48.20117188 C-6.34510351 48.21300253 -9.1725264 48.2294859 -12 48.25 Z " fill="#000000" transform="translate(138,95.75)"/>
<path d="M0 0 C1.32 0 2.64 0 4 0 C4.33 1.32 4.66 2.64 5 4 C5.99 4 6.98 4 8 4 C8 5.32 8 6.64 8 8 C7.01 8.495 7.01 8.495 6 9 C5.67 9.99 5.34 10.98 5 12 C5.99 12.33 6.98 12.66 8 13 C8.495 15.97 8.495 15.97 9 19 C9.56847656 18.67773438 10.13695312 18.35546875 10.72265625 18.0234375 C14.42805934 16.35823062 18.01666303 16.40356452 22 17 C24.87029869 18.79393668 26.49131638 19.98263276 28 23 C29.0231529 29.65049383 26.73716144 34.04462878 23.63085938 39.76977539 C21.76330845 43.26294452 20.55083984 46.26757001 20 50.1875 C19.67 51.445625 19.34 52.70375 19 54 C13.40933645 57.26369854 8.36801397 57.46054049 2 57.375 C1.13632812 57.38660156 0.27265625 57.39820313 -0.6171875 57.41015625 C-6.00089769 57.38561046 -11.93501853 57.06498147 -16 53 C-16.24751976 51.35682664 -16.47257561 49.71025369 -16.6875 48.0625 C-17.42945426 43.61652605 -18.62751528 40.61828886 -21.125 36.875 C-23.77691135 32.78663667 -24.81432122 29.86166229 -24.46875 24.98046875 C-23.74373695 21.91728862 -22.25941786 20.12651093 -20 18 C-17.67404054 16.83702027 -16.21276769 16.83399309 -13.625 16.8125 C-12.85414062 16.79832031 -12.08328125 16.78414062 -11.2890625 16.76953125 C-8.78165112 17.02198393 -7.16738098 17.74806533 -5 19 C-5.0825 18.278125 -5.165 17.55625 -5.25 16.8125 C-4.92573441 13.16451206 -3.42680413 11.65431702 -1 9 C-1.99 8.67 -2.98 8.34 -4 8 C-4 6.68 -4 5.36 -4 4 C-3.01 4 -2.02 4 -1 4 C-0.67 2.68 -0.34 1.36 0 0 Z M-17 21 C-17.33 21.66 -17.66 22.32 -18 23 C-15.36 22.67 -12.72 22.34 -10 22 C-10 21.67 -10 21.34 -10 21 C-12.31 21 -14.62 21 -17 21 Z M14 21 C14 21.33 14 21.66 14 22 C15.98 22 17.96 22 20 22 C20 21.67 20 21.34 20 21 C18.02 21 16.04 21 14 21 Z M22 23 C23 25 23 25 23 25 Z M-20 24 C-20 25.98 -20 27.96 -20 30 C-19.67 30 -19.34 30 -19 30 C-19 28.02 -19 26.04 -19 24 C-19.33 24 -19.66 24 -20 24 Z M23 25 C24 29 24 29 24 29 Z M7 26 C8 28 8 28 8 28 Z M-4 27 C-3 29 -3 29 -3 29 Z M6 28 C7 30 7 30 7 30 Z M-3 29 C-3 31.64 -3 34.28 -3 37 C-6.3 37.33 -9.6 37.66 -13 38 C-12.34 38.66 -11.68 39.32 -11 40 C-8.04104502 39.97948002 -8.04104502 39.97948002 -4.625 39.5625 C1.29240296 39.01459232 6.61545936 39.21339428 12.4765625 40.13671875 C15.64360218 40.24681995 15.64360218 40.24681995 19 36 C14.71 36.66 10.42 37.32 6 38 C6 35.36 6 32.72 6 30 C5.67 30 5.34 30 5 30 C4.67 31.98 4.34 33.96 4 36 C2.35 36.33 0.7 36.66 -1 37 C-1.33 34.36 -1.66 31.72 -2 29 C-2.33 29 -2.66 29 -3 29 Z M19 34 C20 36 20 36 20 36 Z M-9 48 C-9 48.66 -9 49.32 -9 50 C-1.74 50 5.52 50 13 50 C13 49.34 13 48.68 13 48 C5.76807212 46.43633992 -1.78621941 46.35635379 -9 48 Z " fill="#000000" transform="translate(24,0)"/>
<path d="M0 0 C1.21816406 0.03480469 1.21816406 0.03480469 2.4609375 0.0703125 C3.68683594 0.09738281 3.68683594 0.09738281 4.9375 0.125 C5.87722656 0.15980469 5.87722656 0.15980469 6.8359375 0.1953125 C6.8359375 1.1853125 6.8359375 2.1753125 6.8359375 3.1953125 C7.8259375 3.1953125 8.8159375 3.1953125 9.8359375 3.1953125 C9.8359375 2.2053125 9.8359375 1.2153125 9.8359375 0.1953125 C13.7959375 0.1953125 17.7559375 0.1953125 21.8359375 0.1953125 C22.1659375 1.1853125 22.4959375 2.1753125 22.8359375 3.1953125 C23.4959375 3.1953125 24.1559375 3.1953125 24.8359375 3.1953125 C25.1659375 2.2053125 25.4959375 1.2153125 25.8359375 0.1953125 C27.31500642 0.16842034 28.79421233 0.14896629 30.2734375 0.1328125 C31.09714844 0.12121094 31.92085938 0.10960937 32.76953125 0.09765625 C34.8359375 0.1953125 34.8359375 0.1953125 35.8359375 1.1953125 C36.109375 3.3046875 36.109375 3.3046875 36.2109375 5.9453125 C36.25992188 6.80640625 36.30890625 7.6675 36.359375 8.5546875 C35.8359375 11.1953125 35.8359375 11.1953125 33.359375 13.46875 C29.86886478 17.24023008 29.99238305 20.09260557 30.0859375 25.0703125 C30.09044922 25.88097168 30.09496094 26.69163086 30.09960938 27.52685547 C30.24492631 31.17534855 30.41381344 33.53913946 32.4140625 36.6484375 C34.29586387 38.33201707 34.29586387 38.33201707 36.2734375 39.7421875 C37.8359375 41.1953125 37.8359375 41.1953125 38.3359375 43.3359375 C38.3359375 45.5703125 38.3359375 45.5703125 37.8359375 49.1953125 C35.88729825 51.14395175 32.9378503 50.3244999 30.34472656 50.33425903 C29.43432617 50.3322348 28.52392578 50.33021057 27.5859375 50.328125 C26.65749023 50.32908173 25.72904297 50.33003845 24.77246094 50.33102417 C22.80533785 50.33170605 20.83821254 50.32985122 18.87109375 50.32568359 C15.84890724 50.32033545 12.82686935 50.32562832 9.8046875 50.33203125 C7.89843717 50.33137047 5.99218693 50.33008931 4.0859375 50.328125 C2.72033691 50.33116135 2.72033691 50.33116135 1.32714844 50.33425903 C-5.04911281 50.31026219 -5.04911281 50.31026219 -6.1640625 49.1953125 C-6.7265625 46.1328125 -6.7265625 46.1328125 -6.1640625 42.1953125 C-4.37890625 40.5859375 -4.37890625 40.5859375 -2.1640625 38.8828125 C0.96975172 36.06126447 2.10225029 33.9679343 2.578125 29.859375 C2.65424162 28.24337327 2.69802269 26.6255543 2.7109375 25.0078125 C2.73027344 24.22301514 2.74960938 23.43821777 2.76953125 22.62963867 C2.67689995 18.27722515 2.67689995 18.27722515 0.45605469 14.69750977 C-1.07760846 13.52174691 -2.62049987 12.35804865 -4.1640625 11.1953125 C-4.8203125 8.80859375 -4.8203125 8.80859375 -4.6640625 6.5078125 C-4.633125 5.74082031 -4.6021875 4.97382813 -4.5703125 4.18359375 C-3.97260585 1.25827947 -2.97971131 0.26892701 0 0 Z M6.8359375 17.1953125 C6.8359375 17.8553125 6.8359375 18.5153125 6.8359375 19.1953125 C13.1059375 19.1953125 19.3759375 19.1953125 25.8359375 19.1953125 C25.8359375 18.5353125 25.8359375 17.8753125 25.8359375 17.1953125 C19.5659375 17.1953125 13.2959375 17.1953125 6.8359375 17.1953125 Z M6.8359375 32.1953125 C6.8359375 32.8553125 6.8359375 33.5153125 6.8359375 34.1953125 C13.1059375 34.1953125 19.3759375 34.1953125 25.8359375 34.1953125 C25.8359375 33.5353125 25.8359375 32.8753125 25.8359375 32.1953125 C19.5659375 32.1953125 13.2959375 32.1953125 6.8359375 32.1953125 Z " fill="#000000" transform="translate(232.1640625,6.8046875)"/>
<path d="M0 0 C2.09375 -0.36328125 2.09375 -0.36328125 4.5 -0.3125 C5.69109375 -0.30669922 5.69109375 -0.30669922 6.90625 -0.30078125 C9 -0 9 -0 11 2 C10.9175 3.27875 10.835 4.5575 10.75 5.875 C10.6209827 8.01617956 10.6209827 8.01617956 11 10 C13.72388597 12.28834023 13.72388597 12.28834023 17 14 C20.01443384 17.42178976 21.86407464 19.6135613 22.3125 24.1875 C22.01450532 27.82303507 21.8092094 28.62348173 19.9375 31.4375 C17.29165637 35.51228357 18.21044428 38.34162127 19 43 C18.34 43.66 17.68 44.32 17 45 C19.12173687 46.26112822 19.12173687 46.26112822 22.3125 45.875 C26.3005108 46.01018681 27.91954065 46.53563252 31 49 C32.3125 51.1875 32.3125 51.1875 33 53 C29.375 58.875 29.375 58.875 26 60 C24.42684275 59.58961115 22.85613021 59.16576183 21.3046875 58.6796875 C18.31060885 57.79668803 15.28941782 57.085777 12.25 56.375 C10.58710938 55.98441406 10.58710938 55.98441406 8.890625 55.5859375 C5.67707147 54.93454151 3.66242088 54.76220789 0.5625 55.875 C-5.76536334 57.87327263 -12.36349529 59 -19 59 C-21.63342457 56.50892271 -22.92596266 55.03652277 -23.1875 51.375 C-22 49 -22 49 -18.8125 47.1875 C-15.25353129 46.07896876 -12.6862973 45.73027093 -9 46 C-9 45.34 -9 44.68 -9 44 C-8.96519531 43.34386719 -8.93039062 42.68773437 -8.89453125 42.01171875 C-8.71485104 36.92077955 -9.15310225 34.32728457 -12 30 C-13.47406525 24.79163613 -13.00480629 21.55199867 -10.45703125 16.93359375 C-7.89853622 13.53827192 -4.55071073 11.2752127 -1 9 C-1.20625 8.071875 -1.4125 7.14375 -1.625 6.1875 C-2 3 -2 3 0 0 Z M4 4 C4 4.99 4 5.98 4 7 C4.66 7 5.32 7 6 7 C6 6.01 6 5.02 6 4 C5.34 4 4.68 4 4 4 Z M4 17 C4 18.32 4 19.64 4 21 C3.01 21 2.02 21 1 21 C1 21.66 1 22.32 1 23 C1.99 23 2.98 23 4 23 C4 24.32 4 25.64 4 27 C4.66 27 5.32 27 6 27 C6 25.68 6 24.36 6 23 C6.99 23 7.98 23 9 23 C9 22.34 9 21.68 9 21 C8.01 21 7.02 21 6 21 C6 19.68 6 18.36 6 17 C5.34 17 4.68 17 4 17 Z M-2 32 C-2.33 32.66 -2.66 33.32 -3 34 C1.95 34 6.9 34 12 34 C11.67 33.34 11.34 32.68 11 32 C6.71 32 2.42 32 -2 32 Z M-3 38 C-3 38.33 -3 38.66 -3 39 C1.95 39 6.9 39 12 39 C12 38.67 12 38.34 12 38 C7.05 38 2.1 38 -3 38 Z " fill="#000000" transform="translate(354,0)"/>
<path d="M0 0 C3 2 3 2 3.6875 4.375 C4 7 4 7 4 11 C4.66 11.78375 5.32 12.5675 6 13.375 C8 16 8 16 8.4375 18.9375 C7.93611052 22.44722633 6.75056701 24.93650774 5 28 C5.5775 28.226875 6.155 28.45375 6.75 28.6875 C9.86151615 30.50255109 11.11963542 31.86605903 13 35 C15.58724058 45.23827825 15.58724058 45.23827825 14 50 C1.79 50 -10.42 50 -23 50 C-23 36.43902439 -23 36.43902439 -17.4375 30.0625 C-15 28 -15 28 -13 28 C-13.495 27.34 -13.99 26.68 -14.5 26 C-16.39362097 22.21275806 -16.80935269 19.16603647 -16 15 C-14.68678142 13.3174387 -13.35386936 11.65002828 -12 10 C-11.95977609 7.6670134 -11.95679753 5.33293334 -12 3 C-8.84358911 -1.50915841 -4.96416184 -1.13762042 0 0 Z " fill="#000000" transform="translate(585,7)"/>
<path d="M0 0 C1.9375 0.375 1.9375 0.375 4 1 C4.33 1.66 4.66 2.32 5 3 C5.99 3.33 6.98 3.66 8 4 C7.25 8.75 7.25 8.75 5 11 C5.66 11.5775 6.32 12.155 7 12.75 C9 15 9 15 9 19 C9.495 18.67 9.99 18.34 10.5 18 C14.00091085 16.59963566 17.30776319 16.52287198 21 17 C23.87472735 18.24988145 25.44101438 19.25468584 27.3125 21.75 C28.3595029 25.17655495 28.46485467 27.39737629 28 31 C26.61887723 33.47469316 25.07096506 35.80183973 23.51171875 38.16796875 C21.77554374 41.42049299 21.163971 44.31986405 20.5 47.9375 C19.29585944 53.72689898 19.29585944 53.72689898 16.5625 56.25 C6.64812957 58.33723588 -3.1144106 58.57999404 -13 56 C-15.60249304 54.29298843 -15.95224232 53.1763175 -16.7734375 50.14453125 C-16.97195312 49.04496094 -17.17046875 47.94539063 -17.375 46.8125 C-18.46233402 41.61296125 -19.92412418 37.96884702 -22.9140625 33.62890625 C-24.43452505 31.34821243 -25 29.75063735 -25 27 C-23.80657066 23.15450547 -22.82155976 20.70745424 -19.75 18.0625 C-15.51096762 16.42469203 -11.7934827 16.26421223 -7.5625 18 C-7.046875 18.33 -6.53125 18.66 -6 19 C-5.54625 17.906875 -5.0925 16.81375 -4.625 15.6875 C-3.58357909 13.17862235 -2.53521956 11.30282933 -1 9 C-1.99 8.67 -2.98 8.34 -4 8 C-4 6.68 -4 5.36 -4 4 C-3.01 4 -2.02 4 -1 4 C-0.67 2.68 -0.34 1.36 0 0 Z M1 15 C-1.28987808 16.87217348 -1.28987808 16.87217348 -1.3125 19.875 C-0.9736202 23.26379801 -0.27183419 24.53884629 2 27 C4.40814077 23.48812804 5.36629408 21.27343092 5 17 C3.68 16.34 2.36 15.68 1 15 Z M-18.3125 22.625 C-20.18165057 24.91353521 -20.18165057 24.91353521 -20.5625 27.8125 C-19.93144805 31.38846103 -19.16366205 33.81416404 -16.96875 36.7109375 C-13.24221292 39.15093201 -9.10669432 38.15514101 -4.86328125 37.66015625 C-1.88694006 37.24038534 -1.88694006 37.24038534 0 35 C-1.71152268 28.79573029 -3.6954035 25.84417311 -8.8671875 22.03125 C-12.48962861 20.27974001 -15.02786107 20.31687535 -18.3125 22.625 Z M9 25 C5.56260513 28.53029744 4.45579932 31.10015733 4 36 C6.80864214 37.40432107 9.2438355 37.28352778 12.375 37.375 C14.08816406 37.44847656 14.08816406 37.44847656 15.8359375 37.5234375 C19.1587568 37.28470921 19.1587568 37.28470921 21.34765625 34.69921875 C23.42891854 31.29933166 24.07257972 28.99188481 24 25 C21.9315113 22.4285061 21.9315113 22.4285061 19 21 C14.17582974 21 12.76546728 22.0974523 9 25 Z M-13 42 C-12.67 43.98 -12.34 45.96 -12 48 C-10.081875 47.7525 -10.081875 47.7525 -8.125 47.5 C0.03580476 46.6046139 7.87242626 46.95128081 16 48 C16.33 46.02 16.66 44.04 17 42 C6.48308919 40.36263664 -2.50625445 39.627501 -13 42 Z M-8 51 C-8.33 51.66 -8.66 52.32 -9 53 C-2.07 53 4.86 53 12 53 C11.67 52.34 11.34 51.68 11 51 C4.73 51 -1.54 51 -8 51 Z " fill="#000000" transform="translate(25,94)"/>
<path d="M0 0 C1.125 6.75 1.125 6.75 0 9 C0.53625 9.226875 1.0725 9.45375 1.625 9.6875 C6.1521336 12.18933699 10.12035769 15.07842449 12 20 C12.08203125 22.21875 12.08203125 22.21875 11.8125 24.5 C11.73644531 25.2528125 11.66039062 26.005625 11.58203125 26.78125 C11 29 11 29 9.45703125 30.95703125 C7.60443606 33.55463791 7.71694731 35.04039201 7.875 38.1875 C7.94541707 39.79066195 7.99415411 41.39530295 8 43 C7.67 43.33 7.34 43.66 7 44 C7.99580078 44.03867188 7.99580078 44.03867188 9.01171875 44.078125 C14.48606338 44.42976174 18.1169216 44.74113982 22 49 C23 52 23 52 21.375 55.3125 C19.96875 56.890625 19.96875 56.890625 18 58 C11.49331911 58.10725298 5.33605701 56.12553889 -0.8125 54.1875 C-5.15317853 52.94196814 -7.43645684 53.09338688 -11.625 55.07421875 C-14.92194197 56.35937541 -18.27226006 56.94989838 -21.75 57.5 C-23.02359375 57.7165625 -24.2971875 57.933125 -25.609375 58.15625 C-29 58 -29 58 -31.453125 55.6953125 C-33 53 -33 53 -33 50.375 C-31.77454516 47.46454475 -30.67314952 46.64536962 -28 45 C-25.421875 44.48828125 -25.421875 44.48828125 -22.75 44.3125 C-21.85796875 44.24675781 -20.9659375 44.18101562 -20.046875 44.11328125 C-19.03367187 44.05720703 -19.03367187 44.05720703 -18 44 C-18.33 43.67 -18.66 43.34 -19 43 C-18.9674933 41.45740943 -18.89860206 39.91552874 -18.8125 38.375 C-18.74915053 34.65849792 -18.97511581 32.46318482 -21.0625 29.375 C-23.21287146 25.62919164 -23.46091323 24.03526761 -22.6796875 19.921875 C-21.00215975 15.17852067 -17.22022919 11.6194526 -13 9 C-12.34 9 -11.68 9 -11 9 C-11.20625 7.906875 -11.4125 6.81375 -11.625 5.6875 C-12 2 -12 2 -10 -1 C-6.32731347 -2.70517589 -3.61946019 -1.3984278 0 0 Z M-7 3 C-6.67 4.32 -6.34 5.64 -6 7 C-5.01 6.01 -4.02 5.02 -3 4 C-4.32 3.67 -5.64 3.34 -7 3 Z M-16 17 C-18.3155324 19.87129568 -18.3155324 19.87129568 -19 23 C-18.39752303 25.94544297 -17.87114482 27.39899383 -15.375 29.12109375 C-12.05485651 30.34976527 -9.09437645 30.30199888 -5.5625 30.3125 C-4.26441406 30.32925781 -2.96632813 30.34601563 -1.62890625 30.36328125 C2.15025999 29.98495783 4.02598434 29.30819126 7 27 C8.25941717 24.70441532 8.25941717 24.70441532 8 22 C5.40354162 16.58130425 1.3575811 13.48626967 -4 11 C-8.89646265 11 -12.29176152 13.9797464 -16 17 Z M-14 33 C-14 33.99 -14 34.98 -14 36 C-8.39 36 -2.78 36 3 36 C3 35.01 3 34.02 3 33 C-2.61 33 -8.22 33 -14 33 Z M-14 39 C-14 39.66 -14 40.32 -14 41 C-8.06 41 -2.12 41 4 41 C3.67 40.34 3.34 39.68 3 39 C-2.61 39 -8.22 39 -14 39 Z M-6 44 C-8.83078554 45.53341477 -8.83078554 45.53341477 -10.72265625 46.87109375 C-15.6742546 49.32565966 -21.56216281 49.42680218 -27 50 C-27 50.99 -27 51.98 -27 53 C-15.34455167 52.04398867 -15.34455167 52.04398867 -5 47 C-4.17242187 47.63421875 -3.34484375 48.2684375 -2.4921875 48.921875 C1.07816004 51.30210669 4.66370996 51.85825209 8.875 52.25 C9.56335938 52.32734375 10.25171875 52.4046875 10.9609375 52.484375 C12.63906865 52.67083402 14.31937988 52.83749729 16 53 C16 52.01 16 51.02 16 50 C14.91460937 49.81824219 13.82921875 49.63648438 12.7109375 49.44921875 C11.26553863 49.19580466 9.82023082 48.94187075 8.375 48.6875 C7.66214844 48.56955078 6.94929688 48.45160156 6.21484375 48.33007812 C2.61108281 47.6853686 -0.03197671 46.98359977 -3.3359375 45.2890625 C-4.21507812 44.86367187 -5.09421875 44.43828125 -6 44 Z " fill="#000000" transform="translate(365,95)"/>
<path d="M0 0 C1.51400391 0.01740234 1.51400391 0.01740234 3.05859375 0.03515625 C4.07050781 0.04417969 5.08242187 0.05320312 6.125 0.0625 C7.29869141 0.07990234 7.29869141 0.07990234 8.49609375 0.09765625 C8.49609375 1.08765625 8.49609375 2.07765625 8.49609375 3.09765625 C9.15609375 3.09765625 9.81609375 3.09765625 10.49609375 3.09765625 C10.49609375 2.10765625 10.49609375 1.11765625 10.49609375 0.09765625 C14.78609375 0.09765625 19.07609375 0.09765625 23.49609375 0.09765625 C23.49609375 1.08765625 23.49609375 2.07765625 23.49609375 3.09765625 C24.15609375 3.09765625 24.81609375 3.09765625 25.49609375 3.09765625 C25.49609375 2.10765625 25.49609375 1.11765625 25.49609375 0.09765625 C27.30851427 0.07078346 29.12104608 0.0513191 30.93359375 0.03515625 C31.94292969 0.02355469 32.95226562 0.01195313 33.9921875 0 C36.49609375 0.09765625 36.49609375 0.09765625 37.49609375 1.09765625 C37.8046875 3.171875 37.8046875 3.171875 37.93359375 5.78515625 C37.99417969 6.63464844 38.05476563 7.48414062 38.1171875 8.359375 C37.41510233 11.45473165 36.82332081 11.89034694 34.51953125 13.90234375 C31.98868559 16.23871114 31.03381447 17.71256006 30.6640625 21.15625 C30.6297273 22.61549605 30.63740107 24.07623741 30.68359375 25.53515625 C30.69261719 26.29505859 30.70164062 27.05496094 30.7109375 27.83789062 C30.88030488 31.33109282 31.0982416 33.50726331 33.078125 36.4453125 C34.327117 37.52132801 35.61218281 38.55723881 36.93359375 39.54296875 C38.49609375 41.09765625 38.49609375 41.09765625 38.99609375 43.46484375 C38.99609375 45.74603232 38.91929925 47.85659076 38.49609375 50.09765625 C36.573522 52.020228 33.71524267 51.22674049 31.15734863 51.23660278 C30.26882202 51.23457855 29.38029541 51.23255432 28.46484375 51.23046875 C27.55859253 51.23142548 26.65234131 51.2323822 25.71862793 51.23336792 C23.79858328 51.23404978 21.87853634 51.23219507 19.95849609 51.22802734 C17.00873671 51.22267917 14.05912961 51.22797213 11.109375 51.234375 C9.24869758 51.23371422 7.38802025 51.23243306 5.52734375 51.23046875 C4.19455383 51.2335051 4.19455383 51.2335051 2.83483887 51.23660278 C-3.38895637 51.21260613 -3.38895637 51.21260613 -4.50390625 50.09765625 C-5.08852111 47.00185482 -5.1520076 44.18506819 -4.50390625 41.09765625 C-2.9765625 39.578125 -2.9765625 39.578125 -1.06640625 38.16015625 C2.02401667 35.56818864 2.76153278 33.55462794 3.18359375 29.66015625 C3.48042967 25.13887648 3.52964827 20.62751694 3.49609375 16.09765625 C2.89796875 15.82953125 2.29984375 15.56140625 1.68359375 15.28515625 C-0.57754623 14.05768026 -1.96549651 13.1583656 -3.50390625 11.09765625 C-3.83203125 8.65234375 -3.83203125 8.65234375 -3.75390625 5.97265625 C-3.7384375 5.08320312 -3.72296875 4.19375 -3.70703125 3.27734375 C-3.41503493 0.14399867 -3.17209489 0.12371665 0 0 Z M0.49609375 4.09765625 C0.00783898 7.51543961 0.32689253 8.8495434 2.296875 11.73828125 C7.04165011 15.23748047 11.25272928 14.79280574 16.99609375 14.66015625 C18.54490234 14.6765918 18.54490234 14.6765918 20.125 14.69335938 C24.69418928 14.64914141 27.67993716 14.56502797 31.6953125 12.265625 C33.79883356 10.14662409 33.79883356 10.14662409 33.80859375 6.84765625 C33.65390625 5.48640625 33.65390625 5.48640625 33.49609375 4.09765625 C31.84609375 4.09765625 30.19609375 4.09765625 28.49609375 4.09765625 C28.49609375 5.08765625 28.49609375 6.07765625 28.49609375 7.09765625 C22.34375 6.51171875 22.34375 6.51171875 20.49609375 6.09765625 C20.16609375 5.43765625 19.83609375 4.77765625 19.49609375 4.09765625 C17.84609375 4.09765625 16.19609375 4.09765625 14.49609375 4.09765625 C14.49609375 5.08765625 14.49609375 6.07765625 14.49609375 7.09765625 C11.52609375 7.09765625 8.55609375 7.09765625 5.49609375 7.09765625 C5.49609375 6.10765625 5.49609375 5.11765625 5.49609375 4.09765625 C3.84609375 4.09765625 2.19609375 4.09765625 0.49609375 4.09765625 Z M7.49609375 17.09765625 C7.49609375 22.04765625 7.49609375 26.99765625 7.49609375 32.09765625 C13.76609375 32.09765625 20.03609375 32.09765625 26.49609375 32.09765625 C26.49609375 27.14765625 26.49609375 22.19765625 26.49609375 17.09765625 C20.22609375 17.09765625 13.95609375 17.09765625 7.49609375 17.09765625 Z M3.49609375 40.09765625 C12.73609375 40.09765625 21.97609375 40.09765625 31.49609375 40.09765625 C27.17922914 35.12976998 27.17922914 35.12976998 21.9921875 34.43359375 C21.16912109 34.42714844 20.34605469 34.42070312 19.49804688 34.4140625 C18.65177734 34.43339844 17.80550781 34.45273438 16.93359375 34.47265625 C16.08345703 34.45332031 15.23332031 34.43398437 14.35742188 34.4140625 C13.53564453 34.42050781 12.71386719 34.42695313 11.8671875 34.43359375 C10.75234985 34.44205322 10.75234985 34.44205322 9.61499023 34.45068359 C6.70608971 35.12097045 6.70608971 35.12097045 3.49609375 40.09765625 Z M-0.50390625 44.09765625 C-0.50390625 44.75765625 -0.50390625 45.41765625 -0.50390625 46.09765625 C11.37609375 46.09765625 23.25609375 46.09765625 35.49609375 46.09765625 C35.49609375 45.43765625 35.49609375 44.77765625 35.49609375 44.09765625 C23.61609375 44.09765625 11.73609375 44.09765625 -0.50390625 44.09765625 Z " fill="#000000" transform="translate(231.50390625,100.90234375)"/>
<path d="M0 0 C2.99324263 1.0975223 3.84610901 1.67682892 5.25 4.625 C5.4975 5.40875 5.745 6.1925 6 7 C6.99 7.020625 7.98 7.04125 9 7.0625 C15.02149938 7.95231671 18.94550493 12.31906974 22.51171875 16.97265625 C28.50137008 26.59566965 29.97102815 38.87052352 29 50 C28.505 50.99 28.505 50.99 28 52 C16.12 52 4.24 52 -8 52 C-6.875 43 -6.875 43 -3.4375 38 C-2.79683594 37.05125 -2.15617187 36.1025 -1.49609375 35.125 C-0.75552734 34.073125 -0.75552734 34.073125 0 33 C-3.21965664 34.36216242 -4.81687435 35.72531153 -6.75 38.625 C-7.17796875 39.25664062 -7.6059375 39.88828125 -8.046875 40.5390625 C-8.36140625 41.02117187 -8.6759375 41.50328125 -9 42 C-13.09098304 41.2561849 -17.05999767 40.338114 -21 39 C-23 36 -23 36 -22.875 32.86328125 C-21.83207922 28.25859979 -20.05155571 24.41524701 -18 20.1875 C-14.9528302 13.67364183 -13 8.30117974 -13 1 C-12.31292969 1.17917969 -11.62585938 1.35835938 -10.91796875 1.54296875 C-9.56638672 1.86201172 -9.56638672 1.86201172 -8.1875 2.1875 C-7.29417969 2.40792969 -6.40085937 2.62835938 -5.48046875 2.85546875 C-2.93660241 3.28017901 -2.93660241 3.28017901 -1.17578125 1.55078125 C-0.78777344 1.03902344 -0.39976562 0.52726562 0 0 Z M-5.0625 8.8125 C-5.98160156 9.33457031 -6.90070313 9.85664062 -7.84765625 10.39453125 C-8.55792969 10.92433594 -9.26820313 11.45414063 -10 12 C-10 12.99 -10 13.98 -10 15 C-8.35 15 -6.7 15 -5 15 C-5.125 16.875 -5.125 16.875 -6 19 C-9.0625 20.25 -9.0625 20.25 -12 21 C-12.33 20.34 -12.66 19.68 -13 19 C-16.05299682 24.2806915 -16.05299682 24.2806915 -16.8203125 30.15625 C-16.22734372 32.26709802 -16.22734372 32.26709802 -15 35 C-15.99 35.33 -16.98 35.66 -18 36 C-15 37.33333333 -15 37.33333333 -12 36 C-11.34 36.33 -10.68 36.66 -10 37 C-9.54109375 36.44570312 -9.0821875 35.89140625 -8.609375 35.3203125 C-7.99578125 34.59585938 -7.3821875 33.87140625 -6.75 33.125 C-6.14671875 32.40570313 -5.5434375 31.68640625 -4.921875 30.9453125 C-3 29 -3 29 -0.8984375 27.99609375 C1.56082795 26.70573842 2.03760829 25.45494888 3.125 22.9375 C4.80555556 19.09722222 4.80555556 19.09722222 7 18 C5.53966258 28.95948465 3.15294137 36.67787239 -3 46 C-3 46.33 -3 46.66 -3 47 C5.91 47 14.82 47 24 47 C24.3806058 33.93253433 23.48905867 26.03252389 15 16 C14.401875 15.195625 13.80375 14.39125 13.1875 13.5625 C9.78193311 11.12995222 6.09805925 11.17513074 2 11 C1.67 9.35 1.34 7.7 1 6 C-1.13889936 6 -3.28321772 7.78396973 -5.0625 8.8125 Z " fill="#000000" transform="translate(467,100)"/>
<path d="M0 0 C1.9375 2.25 1.9375 2.25 3 5 C2.6875 8.3125 2.6875 8.3125 2 11 C2.639375 11.28875 3.27875 11.5775 3.9375 11.875 C6 13 6 13 7 15 C6.94921875 17.09375 6.94921875 17.09375 6.6875 19.5 C6.56955078 20.69109375 6.56955078 20.69109375 6.44921875 21.90625 C6 24 6 24 4 26 C5.3921875 27.051875 5.3921875 27.051875 6.8125 28.125 C9.98965903 30.84398716 11.68920573 32.92197339 13 37 C13 41.29 13 45.58 13 50 C0.79 50 -11.42 50 -24 50 C-24 35.43902439 -24 35.43902439 -18.4375 29.0625 C-16 27 -16 27 -14 27 C-14 26.34 -14 25.68 -14 25 C-14.66 25 -15.32 25 -16 25 C-18.19775281 18.77303371 -18.19775281 18.77303371 -17.3125 15.3125 C-16 13 -16 13 -14.375 11.0625 C-12.7226499 8.99711094 -12.7226499 8.99711094 -13 6 C-13 3 -13 3 -11.75 0.6875 C-7.91013264 -3.01522924 -4.63568139 -2.16989342 0 0 Z M-6 2 C-6.99 2.495 -6.99 2.495 -8 3 C-7.91298828 3.88751953 -7.91298828 3.88751953 -7.82421875 4.79296875 C-7.68215396 7.28113215 -7.64185091 9.5304371 -8 12 C-10.5625 14.75 -10.5625 14.75 -13 17 C-13.25941717 19.70441532 -13.25941717 19.70441532 -12 22 C-10.03241727 23.36020151 -10.03241727 23.36020151 -8 24 C-9.6746667 27.25629636 -11.09374084 29.0742115 -14 31.375 C-17.62422597 34.54619773 -18.52047562 36.47923106 -20 41 C-20 42.32 -20 43.64 -20 45 C-10.43 45 -0.86 45 9 45 C9 38.6701055 8.77974553 37.6519945 5 33 C2.74988739 30.88961601 0.41770391 28.91514748 -2 27 C-0.84826645 24.53199953 0.04783565 22.95216435 2 21 C2.58488562 18.62875402 2.58488562 18.62875402 2 16 C1.154375 15.21625 0.30875 14.4325 -0.5625 13.625 C-1.366875 12.75875 -2.17125 11.8925 -3 11 C-2.8125 7.1875 -2.8125 7.1875 -2 4 C-3.88316159 2.89163577 -3.88316159 2.89163577 -6 2 Z " fill="#000000" transform="translate(587,102)"/>
<path d="M0 0 C1.32 0 2.64 0 4 0 C4 1.32 4 2.64 4 4 C4.66 4 5.32 4 6 4 C6 5.32 6 6.64 6 8 C5.34 8 4.68 8 4 8 C4 9.32 4 10.64 4 12 C2.68 12 1.36 12 0 12 C0 10.68 0 9.36 0 8 C-0.99 8 -1.98 8 -3 8 C-3 6.68 -3 5.36 -3 4 C-2.01 4 -1.02 4 0 4 C0 2.68 0 1.36 0 0 Z " fill="#000000" transform="translate(358,110)"/>
</svg>
