<?xml version="1.0" encoding="UTF-8" standalone="no"?>
<svg
   version="1.1"
   width="55.685974"
   height="59.965782"
   id="svg13"
   xmlns="http://www.w3.org/2000/svg"
   xmlns:svg="http://www.w3.org/2000/svg">
  <defs
     id="defs13" />
  <path
     d="m 33,1.8095322 c 1.125,6.75 1.125,6.75 0,8.9999998 0.53625,0.226875 1.0725,0.45375 1.625,0.6875 4.527134,2.501837 8.495358,5.390924 10.375,10.3125 0.08203,2.21875 0.08203,2.21875 -0.1875,4.5 -0.07606,0.752812 -0.152109,1.505625 -0.230469,2.28125 C 44,30.809532 44,30.809532 42.457031,32.766563 40.604436,35.36417 40.716947,36.849924 40.875,39.997032 c 0.07042,1.603162 0.119154,3.207803 0.125,4.8125 -0.33,0.33 -0.66,0.66 -1,1 0.995801,0.03867 0.995801,0.03867 2.011719,0.07813 5.474344,0.351632 9.105203,0.66301 12.988281,4.92187 1,3 1,3 -0.625,6.3125 -1.40625,1.578125 -1.40625,1.578125 -3.375,2.6875 -6.506681,0.107253 -12.663943,-1.874461 -18.8125,-3.8125 C 27.846821,54.7515 25.563543,54.902919 21.375,56.883751 18.078058,58.168907 14.72774,58.75943 11.25,59.309532 9.976406,59.526095 8.702813,59.742657 7.390625,59.965782 4,59.809532 4,59.809532 1.546875,57.504844 0,54.809532 0,54.809532 0,52.184532 c 1.225455,-2.910455 2.32685,-3.72963 5,-5.375 2.578125,-0.511719 2.578125,-0.511719 5.25,-0.6875 0.892031,-0.06574 1.784063,-0.131484 2.703125,-0.199219 1.013203,-0.05607 1.013203,-0.05607 2.046875,-0.113281 -0.33,-0.33 -0.66,-0.66 -1,-1 0.03251,-1.542591 0.101398,-3.084471 0.1875,-4.625 0.06335,-3.716502 -0.162616,-5.911815 -2.25,-9 C 9.787129,27.438724 9.539087,25.8448 10.320313,21.731407 11.99784,16.988053 15.779771,13.428985 20,10.809532 c 0.66,0 1.32,0 2,0 C 21.79375,9.7164072 21.5875,8.6232822 21.375,7.4970322 21,3.8095322 21,3.8095322 23,0.80953217 c 3.672686,-1.7051759 6.38054,-0.3984278 10,1.00000003 z m -7,3 c 0.33,1.32 0.66,2.64 1,4 0.99,-0.99 1.98,-1.98 3,-3 -1.32,-0.33 -2.64,-0.66 -4,-1 z M 17,18.809532 c -2.315532,2.871296 -2.315532,2.871296 -3,6 0.602477,2.945443 1.128855,4.398994 3.625,6.121094 3.320143,1.228671 6.280623,1.180905 9.8125,1.191406 1.298086,0.01676 2.596172,0.03352 3.933594,0.05078 3.779166,-0.378322 5.65489,-1.055089 8.628906,-3.36328 1.259417,-2.295585 1.259417,-2.295585 1,-5 -2.596458,-5.418696 -6.642419,-8.51373 -12,-11 -4.896463,0 -8.291762,2.979746 -12,6 z m 2,16 c 0,0.99 0,1.98 0,3 5.61,0 11.22,0 17,0 0,-0.99 0,-1.98 0,-3 -5.61,0 -11.22,0 -17,0 z m 0,6 c 0,0.66 0,1.32 0,2 5.94,0 11.88,0 18,0 -0.33,-0.66 -0.66,-1.32 -1,-2 -5.61,0 -11.22,0 -17,0 z m 8,5 c -2.830786,1.533415 -2.830786,1.533415 -4.722656,2.871094 C 17.325745,51.135192 11.437837,51.236334 6,51.809532 c 0,0.99 0,1.98 0,3 11.655448,-0.956011 11.655448,-0.956011 22,-6 0.827578,0.634219 1.655156,1.268437 2.507812,1.921875 3.570348,2.380232 7.155898,2.936377 11.367188,3.328125 0.688359,0.07734 1.376719,0.154688 2.085938,0.234375 1.678131,0.186459 3.358442,0.353122 5.039062,0.515625 0,-0.99 0,-1.98 0,-3 C 47.914609,51.627774 46.829219,51.446016 45.710938,51.258751 44.265539,51.005337 42.820231,50.751403 41.375,50.497032 40.662148,50.379083 39.949297,50.261134 39.214844,50.13961 35.611083,49.494901 32.968023,48.793132 29.664062,47.098594 28.784922,46.673204 27.905781,46.247813 27,45.809532 Z"
     fill="#000000"
     id="path9" />
  <path
     d="m 26,16.809532 c 1.32,0 2.64,0 4,0 0,1.32 0,2.64 0,4 0.66,0 1.32,0 2,0 0,1.32 0,2.64 0,4 -0.66,0 -1.32,0 -2,0 0,1.32 0,2.64 0,4 -1.32,0 -2.64,0 -4,0 0,-1.32 0,-2.64 0,-4 -0.99,0 -1.98,0 -3,0 0,-1.32 0,-2.64 0,-4 0.99,0 1.98,0 3,0 0,-1.32 0,-2.64 0,-4 z"
     fill="#000000"
     id="path13" />
</svg>
