<?xml version="1.0" encoding="UTF-8" standalone="no"?>
<svg
   version="1.1"
   width="52.19516"
   height="52"
   id="svg13"
   xmlns="http://www.w3.org/2000/svg"
   xmlns:svg="http://www.w3.org/2000/svg">
  <defs
     id="defs13" />
  <path
     d="m 22.920013,0 c 2.993243,1.0975223 3.846109,1.6768289 5.25,4.625 0.2475,0.78375 0.495,1.5675 0.75,2.375 0.99,0.020625 1.98,0.04125 3,0.0625 6.021499,0.8898167 9.945505,5.25657 13.511719,9.910156 5.989651,9.623014 7.459309,21.897868 6.488281,33.027344 -0.495,0.99 -0.495,0.99 -1,2 -11.88,0 -23.76,0 -36,0 1.125,-9 1.125,-9 4.5625,-14 0.640665,-0.94875 1.281329,-1.8975 1.941407,-2.875 0.740566,-1.051875 0.740566,-1.051875 1.496093,-2.125 -3.219656,1.362162 -4.816874,2.725312 -6.75,5.625 -0.427968,0.631641 -0.855937,1.263281 -1.296875,1.914062 C 14.558607,41.021172 14.244076,41.503281 13.920013,42 9.8290304,41.256185 5.8600154,40.338114 1.9200134,39 -0.07998657,36 -0.07998657,36 0.04501343,32.863281 1.0879344,28.2586 2.8684574,24.415247 4.9200134,20.1875 c 3.04717,-6.513858 5,-11.8863203 5,-19.1875 0.6870696,0.1791797 1.3741406,0.3583594 2.0820306,0.5429687 1.351583,0.319043 1.351583,0.319043 2.730469,0.6445313 0.893321,0.2204297 1.786641,0.4408594 2.707032,0.6679688 C 19.983411,3.280179 19.983411,3.280179 21.744232,1.5507812 22.13224,1.0390234 22.520248,0.52726562 22.920013,0 Z m -5.0625,8.8125 C 16.938412,9.3345703 16.01931,9.8566406 15.072357,10.394531 14.362084,10.924336 13.65181,11.454141 12.920013,12 c 0,0.99 0,1.98 0,3 1.65,0 3.3,0 5,0 -0.125,1.875 -0.125,1.875 -1,4 -3.0625,1.25 -3.0625,1.25 -6,2 -0.33,-0.66 -0.66,-1.32 -0.9999996,-2 -3.052997,5.280691 -3.052997,5.280691 -3.820312,11.15625 0.592968,2.110848 0.592968,2.110848 1.820312,4.84375 -0.99,0.33 -1.98,0.66 -3,1 3,1.333333 3,1.333333 5.9999996,0 0.66,0.33 1.32,0.66 2,1 0.458907,-0.554297 0.917813,-1.108594 1.390625,-1.679688 0.613594,-0.724453 1.227188,-1.448906 1.859375,-2.195312 0.603282,-0.719297 1.206563,-1.438594 1.828125,-2.179688 C 19.920013,29 19.920013,29 22.021576,27.996094 c 2.459265,-1.290356 2.936046,-2.541145 4.023437,-5.058594 1.680556,-3.840278 1.680556,-3.840278 3.875,-4.9375 -1.460337,10.959485 -3.847058,18.677872 -10,28 0,0.33 0,0.66 0,1 8.91,0 17.82,0 27,0 0.380606,-13.067466 -0.510941,-20.967476 -9,-31 -0.598125,-0.804375 -1.19625,-1.60875 -1.8125,-2.4375 -3.405566,-2.432548 -7.08944,-2.387369 -11.1875,-2.5625 -0.33,-1.65 -0.66,-3.3 -1,-5 -2.138899,0 -4.283217,1.7839697 -6.0625,2.8125 z"
     fill="#000000"
     id="path11" />
</svg>
