<?xml version="1.0" encoding="UTF-8" standalone="no"?>
<svg
   version="1.1"
   width="53.263058"
   height="57.875214"
   id="svg13"
   xmlns="http://www.w3.org/2000/svg"
   xmlns:svg="http://www.w3.org/2000/svg">
  <defs
     id="defs13" />
  <path
     d="m 25,0 c 1.9375,0.375 1.9375,0.375 4,1 0.33,0.66 0.66,1.32 1,2 0.99,0.33 1.98,0.66 3,1 -0.75,4.75 -0.75,4.75 -3,7 0.66,0.5775 1.32,1.155 2,1.75 2,2.25 2,2.25 2,6.25 0.495,-0.33 0.99,-0.66 1.5,-1 3.500911,-1.400364 6.807763,-1.477128 10.5,-1 2.874727,1.249881 4.441014,2.254686 6.3125,4.75 1.047003,3.426555 1.152355,5.647376 0.6875,9.25 -1.381123,2.474693 -2.929035,4.80184 -4.488281,7.167969 C 46.775544,41.420493 46.163971,44.319864 45.5,47.9375 44.295859,53.726899 44.295859,53.726899 41.5625,56.25 31.64813,58.337236 21.885589,58.579994 12,56 9.397507,54.292988 9.047758,53.176318 8.226563,50.144531 8.028047,49.044961 7.829531,47.945391 7.625,46.8125 6.537666,41.612961 5.075876,37.968847 2.085938,33.628906 0.565475,31.348212 0,29.750637 0,27 1.193429,23.154505 2.17844,20.707454 5.25,18.0625 9.489032,16.424692 13.206517,16.264212 17.4375,18 17.953125,18.33 18.46875,18.66 19,19 19.45375,17.906875 19.9075,16.81375 20.375,15.6875 21.416421,13.178622 22.46478,11.302829 24,9 23.01,8.67 22.02,8.34 21,8 c 0,-1.32 0,-2.64 0,-4 0.99,0 1.98,0 3,0 0.33,-1.32 0.66,-2.64 1,-4 z m 1,15 c -2.289878,1.872173 -2.289878,1.872173 -2.3125,4.875 0.33888,3.388798 1.040666,4.663846 3.3125,7.125 2.408141,-3.511872 3.366294,-5.726569 3,-10 -1.32,-0.66 -2.64,-1.32 -4,-2 z M 6.6875,22.625 c -1.869151,2.288535 -1.869151,2.288535 -2.25,5.1875 0.631052,3.575961 1.398838,6.001664 3.59375,8.898437 3.726537,2.439995 7.862056,1.444204 12.105469,0.949219 C 23.11306,37.240385 23.11306,37.240385 25,35 23.288477,28.79573 21.304596,25.844173 16.132812,22.03125 12.510371,20.27974 9.972139,20.316875 6.6875,22.625 Z M 34,25 c -3.437395,3.530297 -4.544201,6.100157 -5,11 2.808642,1.404321 5.243836,1.283528 8.375,1.375 1.713164,0.07348 1.713164,0.07348 3.460938,0.148437 3.322819,-0.238728 3.322819,-0.238728 5.511718,-2.824218 C 48.428919,31.299332 49.07258,28.991885 49,25 46.931511,22.428506 46.931511,22.428506 44,21 39.17583,21 37.765467,22.097452 34,25 Z M 12,42 c 0.33,1.98 0.66,3.96 1,6 1.918125,-0.2475 1.918125,-0.2475 3.875,-0.5 C 25.035805,46.604614 32.872426,46.951281 41,48 41.33,46.02 41.66,44.04 42,42 31.483089,40.362637 22.493745,39.627501 12,42 Z m 5,9 c -0.33,0.66 -0.66,1.32 -1,2 6.93,0 13.86,0 21,0 -0.33,-0.66 -0.66,-1.32 -1,-2 -6.27,0 -12.54,0 -19,0 z"
     fill="#000000"
     id="path8" />
</svg>
