<?xml version="1.0" encoding="UTF-8" standalone="no"?>
<svg
   version="1.1"
   width="60.328125"
   height="56.488373"
   id="svg13"
   xmlns="http://www.w3.org/2000/svg"
   xmlns:svg="http://www.w3.org/2000/svg">
  <defs
     id="defs13" />
  <path
     d="m 30.328117,0 c 3,0.25 3,0.25 5,2.25 -0.04401,2.505727 -0.185682,4.8897706 -0.4375,7.375 -0.657339,5.875216 -0.657339,5.875216 0.4375,11.625 2.249778,-6.58115 2.249778,-6.58115 3,-13.4375 0,-2.5625 0,-2.5625 1.1875,-4.4375 2.492864,-1.5472948 3.932173,-1.6290572 6.8125,-1.125 1.9375,1.625 1.9375,1.625 3,4 -0.699208,2.9133675 -1.664917,5.329835 -3,8 -0.06895,1.373428 -0.08468,2.750021 -0.0625,4.125 0.02063,1.27875 0.04125,2.5575 0.0625,3.875 2.050993,-2.905573 3.01127,-4.447772 2.9375,-8.0625 0.0625,-2.9375 0.0625,-2.9375 1.75,-5.375 2.3125,-1.5625 2.3125,-1.5625 4.9375,-1.5 2.375,0.9375 2.375,0.9375 4.375,3.9375 -0.2344,2.969066 -0.844036,4.758776 -2.464844,7.265625 -1.722812,3.068623 -2.278774,5.657271 -2.910156,9.109375 -0.86693,4.157536 -1.561198,7.047552 -4.375,10.25 -1.912948,2.260239 -2.244635,3.135271 -2.3125,6.167969 0.202504,1.956695 0.454835,3.909123 0.765625,5.851562 C 49.328117,52.25 49.328117,52.25 48.328117,54.25 c -11.139994,3.713331 -24.660568,2.155673 -36,0 -0.33,-0.33 -0.66,-0.66 -1,-1 0.349836,-2.660594 0.780156,-5.300588 1.234375,-7.945313 -0.292867,-3.817031 -1.680543,-5.214906 -3.9785156,-8.149414 -2.165149,-3.284763 -2.68497,-6.89701 -3.380859,-10.717773 -0.522955,-2.786739 -1.132479,-5.442509 -1.875,-8.1875 -0.99,-0.66 -1.98,-1.32 -3.00000003,-2 -0.4375,-2.9375 -0.4375,-2.9375 0,-6 1.68750003,-2 1.68750003,-2 4.00000003,-3 2.392634,0.6677118 4.220974,1.2209739 5.9999996,3 0.493311,2.542795 0.89978,5.094067 1.304688,7.652344 0.526422,2.697481 0.526422,2.697481 3.695312,4.347656 -0.282119,-1.626685 -0.576024,-3.251329 -0.875,-4.875 C 14.290695,16.470078 14.128273,15.565156 13.96093,14.632813 13.49767,12.08494 13.49767,12.08494 11.328117,10.25 c -0.25,-3 -0.25,-3 0,-6 2,-2 2,-2 5,-2.25 3,0.25 3,0.25 5,2.25 0.408937,2.1327172 0.730946,4.2826632 1,6.4375 0.615691,5.090876 0.615691,5.090876 3,9.5625 -0.0232,-1.276172 -0.04641,-2.552344 -0.07031,-3.867188 -0.01876,-1.669264 -0.03696,-3.338536 -0.05469,-5.007812 -0.01676,-0.841758 -0.03351,-1.6835156 -0.05078,-2.5507812 -0.0064,-0.8056641 -0.01289,-1.6113282 -0.01953,-2.4414063 -0.01047,-0.7436279 -0.02095,-1.4872559 -0.03174,-2.253418 C 25.521928,0.645745 27.051053,0.27308867 30.328117,0 Z m -1,3.25 c 0,0.99 0,1.98 0,3 0.66,0 1.32,0 2,0 0,-0.99 0,-1.98 0,-3 -0.66,0 -1.32,0 -2,0 z m -14,3 c 0.33,0.99 0.66,1.98 1,3 0.66,-0.66 1.32,-1.32 2,-2 -0.99,-0.33 -1.98,-0.66 -3,-1 z m 27,0 c 0.33,0.99 0.66,1.98 1,3 0.66,-0.33 1.32,-0.66 2,-1 0,-0.66 0,-1.32 0,-2 -0.99,0 -1.98,0 -3,0 z m -37.9999996,5 c 0,0.99 0,1.98 0,3 0.66,0 1.32,0 2,0 0,-0.99 0,-1.98 0,-3 -0.66,0 -1.32,0 -2,0 z m 49.9999996,0 c -0.33,0.99 -0.66,1.98 -1,3 0.99,0 1.98,0 3,0 0,-0.99 0,-1.98 0,-3 -0.66,0 -1.32,0 -2,0 z m -14,8 c -0.415722,0.831445 -0.415722,0.831445 -0.839843,1.679687 -1.386719,2.773438 -2.773438,5.546875 -4.160157,8.320313 2.31,0.33 4.62,0.66 7,1 -0.33,-3.63 -0.66,-7.26 -1,-11 -0.33,0 -0.66,0 -1,0 z m -22,1 c -0.33,3.3 -0.66,6.6 -1,10 3.465,-0.495 3.465,-0.495 7,-1 -1.65,-2.97 -3.3,-5.94 -5,-9 -0.33,0 -0.66,0 -1,0 z m 11,0 c -0.99,2.97 -1.98,5.94 -3,9 2.31,0 4.62,0 7,0 -0.99,-2.97 -1.98,-5.94 -3,-9 -0.33,0 -0.66,0 -1,0 z m -19.9999996,4 c 0.9999996,2 0.9999996,2 0.9999996,2 z m 39.9999996,1 c -1.690882,1.979569 -3.358305,3.979452 -5,6 2.475,0.495 2.475,0.495 5,1 0.33,-2.31 0.66,-4.62 1,-7 -0.33,0 -0.66,0 -1,0 z m -39,1 c 0,1.65 0,3.3 0,5 0.99,0.33 1.98,0.66 3,1 0.99,-0.66 1.98,-1.32 3,-2 -1.98,-1.32 -3.96,-2.64 -6,-4 z m 6,9 c 0,0.33 0,0.66 0,1 9.24,0 18.48,0 28,0 -3.939768,-3.939768 -9.150521,-3.182985 -14.4375,-3.1875 -0.750879,-0.01225 -1.501757,-0.02449 -2.27539,-0.03711 -4.223586,-0.01114 -7.430147,0.284627 -11.28711,2.22461 z m 1,5 c 0,1.32 0,2.64 0,4 8.25,0 16.5,0 25,0 0,-1.32 0,-2.64 0,-4 -8.492085,-0.735981 -16.530955,-1.295266 -25,0 z m 1,8 c -0.33,0.66 -0.66,1.32 -1,2 4.317807,1.439269 8.477627,1.184315 13,1.1875 1.372852,0.01837 1.372852,0.01837 2.773438,0.03711 1.318711,0.0029 1.318711,0.0029 2.664062,0.0059 0.803086,0.0041 1.606172,0.0082 2.433594,0.01245 2.428815,-0.112992 2.428815,-0.112992 5.128906,-2.24296 -1.037928,-1.261811 -1.037928,-1.261811 -3.31665,-1.113525 -1.500348,0.0079 -1.500348,0.0079 -3.031006,0.01587 -1.07959,0.0032 -2.15918,0.0064 -3.271484,0.0098 -1.704463,0.01257 -1.704463,0.01257 -3.44336,0.02539 -1.140175,0.0045 -2.280351,0.009 -3.455078,0.01367 -2.827525,0.0118 -5.654948,0.02828 -8.482422,0.04879 z"
     fill="#000000"
     id="path3" />
</svg>
