<?xml version="1.0" encoding="UTF-8" standalone="no"?>
<svg
   version="1.1"
   width="43.96257"
   height="51.390625"
   id="svg13"
   xmlns="http://www.w3.org/2000/svg"
   xmlns:svg="http://www.w3.org/2000/svg">
  <defs
     id="defs13" />
  <path
     d="m 4.9664802,-3.75e-6 c 1.5140039,0.01740234 1.5140039,0.01740234 3.0585938,0.03515625 1.011914,0.0090234 2.023828,0.01804687 3.066406,0.02734375 1.173692,0.01740234 1.173692,0.01740234 2.371094,0.03515625 0,0.9899999 0,1.98 0,3 0.66,0 1.32,0 2,0 0,-0.9900001 0,-1.9800001 0,-3 4.29,0 8.58,0 13,0 0,0.9899999 0,1.98 0,3 0.66,0 1.32,0 2,0 0,-0.9900001 0,-1.9800001 0,-3 1.81242,-0.02687279 3.624952,-0.04633715 5.4375,-0.0625 1.009336,-0.01160156 2.018672,-0.02320312 3.058593,-0.03515625 2.503907,0.09765625 2.503907,0.09765625 3.503907,1.09765615 0.308593,2.0742188 0.308593,2.0742188 0.4375,4.6875 0.06059,0.8494922 0.121172,1.6989844 0.183593,2.5742188 -0.702085,3.0953568 -1.293866,3.5309718 -3.597656,5.5429688 -2.530845,2.336367 -3.485717,3.810216 -3.855469,7.253906 -0.03434,1.459246 -0.02666,2.919987 0.01953,4.378906 0.009,0.759903 0.01805,1.519805 0.02734,2.302735 0.169368,3.493202 0.387305,5.669372 2.367188,8.607421 1.248992,1.076016 2.534058,2.111927 3.855469,3.097657 1.5625,1.554687 1.5625,1.554687 2.0625,3.921875 0,2.281188 -0.07679,4.391747 -0.5,6.632812 -1.922572,1.922572 -4.780851,1.129084 -7.338745,1.138947 -0.888527,-0.002 -1.777054,-0.004 -2.692505,-0.0061 -0.906251,9.56e-4 -1.812503,0.0019 -2.746216,0.0029 -1.920045,6.82e-4 -3.840092,-0.0012 -5.760132,-0.0053 -2.949759,-0.0053 -5.899366,-5.5e-5 -8.849121,0.0063 -1.860677,-6.61e-4 -3.721355,-0.0019 -5.582031,-0.0039 -1.33279,0.003 -1.33279,0.003 -2.6925049,0.0061 -6.2237953,-0.024 -6.2237953,-0.024 -7.33874511,-1.138947 -0.5846149,-3.095801 -0.6481014,-5.912588 0,-9 1.52734371,-1.519531 1.52734371,-1.519531 3.43750001,-2.9375 3.0904229,-2.591967 3.827939,-4.605528 4.25,-8.5 0.2968359,-4.52128 0.3460545,-9.032639 0.3125,-13.5625 -0.598125,-0.268125 -1.19625,-0.53625 -1.8125001,-0.8125 -2.2611399,-1.227476 -3.6490902,-2.12679 -5.1875,-4.1875 C 1.1344439,8.65234 1.1344439,8.65234 1.2125689,5.9726524 1.2280379,5.0831993 1.2435069,4.1937462 1.2594439,3.27734 1.5514453,0.14399492 1.7943853,0.1237129 4.9664802,-3.75e-6 Z M 5.4625739,4.0976524 c -0.4882547,3.4177834 -0.1692012,4.7518872 1.8007813,7.6406246 4.7447748,3.499199 8.9558538,3.054525 14.6992188,2.921875 1.548808,0.01644 1.548808,0.01644 3.128906,0.0332 4.569189,-0.04422 7.554937,-0.128331 11.570312,-2.427734 2.103522,-2.119001 2.103522,-2.119001 2.113282,-5.4179686 -0.154688,-1.36125 -0.154688,-1.36125 -0.3125,-2.75 -1.65,0 -3.3,0 -5,0 0,0.99 0,1.9800001 0,3 -6.152344,-0.5859375 -6.152344,-0.5859375 -8,-1 -0.33,-0.66 -0.66,-1.32 -1,-2 -1.65,0 -3.3,0 -5,0 0,0.99 0,1.9800001 0,3 -2.97,0 -5.94,0 -9,0 0,-0.99 0,-1.98 0,-3 -1.65,0 -3.3,0 -5.0000001,0 z M 12.462574,17.097652 c 0,4.95 0,9.9 0,15 6.27,0 12.54,0 19,0 0,-4.95 0,-9.9 0,-15 -6.27,0 -12.54,0 -19,0 z m -4,23 c 9.24,0 18.48,0 28,0 -4.316865,-4.967886 -4.316865,-4.967886 -9.503907,-5.664062 -0.823066,-0.0064 -1.646132,-0.01289 -2.49414,-0.01953 -0.84627,0.01934 -1.692539,0.03867 -2.564453,0.05859 -0.850137,-0.01934 -1.700274,-0.03867 -2.576172,-0.05859 -0.821777,0.0064 -1.643555,0.01289 -2.490234,0.01953 -1.114838,0.0085 -1.114838,0.0085 -2.252198,0.01709 -2.9089,0.670286 -2.9089,0.670286 -6.118896,5.646972 z m -4.0000001,4 c 0,0.66 0,1.32 0,2 11.8800001,0 23.7600001,0 36.0000001,0 0,-0.66 0,-1.32 0,-2 -11.88,0 -23.76,0 -36.0000001,0 z"
     fill="#000000"
     id="path10" />
</svg>
